<svg width="64" height="64" viewBox="0 0 64 64" fill="none" xmlns="http://www.w3.org/2000/svg">
  <!-- Background Circle -->
  <circle cx="32" cy="32" r="30" fill="url(#gradient)" />
  
  <!-- Lung Icon -->
  <path d="M32 12C28 12 25 15 25 19V28C25 30 23 32 21 32C19 32 17 34 17 36V42C17 46 20 50 24 50C26 50 28 49 29 47C30 45 31 44 32 44C33 44 34 45 35 47C36 49 38 50 40 50C44 50 47 46 47 42V36C47 34 45 32 43 32C41 32 39 30 39 28V19C39 15 36 12 32 12Z" fill="white" opacity="0.9"/>
  
  <!-- Medical Cross Accent -->
  <rect x="30" y="20" width="4" height="12" rx="1" fill="#0284c7"/>
  <rect x="26" y="24" width="12" height="4" rx="1" fill="#0284c7"/>
  
  <!-- Gradient Definition -->
  <defs>
    <linearGradient id="gradient" x1="0" y1="0" x2="64" y2="64" gradientUnits="userSpaceOnUse">
      <stop offset="0%" stop-color="#0ea5e9"/>
      <stop offset="100%" stop-color="#0284c7"/>
    </linearGradient>
  </defs>
</svg>
